<?xml version="1.0" encoding="UTF-8"?>
<svg version="1.1" viewBox="0 0 2048 920" width="1280" height="1280" xmlns="http://www.w3.org/2000/svg">
<path transform="translate(1150,54)" d="m0 0 21 1 20 4 17 6 17 9 16 12 12 11 9 11 10 16 7 15 3 10 11-3 6-1h30l17 4 15 6 14 8 10 8 12 12 9 13 7 14 5 16 2 10 1 10v12l11 2 18 8 11 7 11 9 8 8 10 14 8 16 5 16 3 19v12l-3 19-6 18-9 16-8 10-5 6-8 7-13 9-16 8-8 3-4 10-8 16-11 16-10 10-13 10-16 9-17 6-14 3-13 1-18-1-20-5-16-7-9-5-3 1-9 12-8 8-13 10-14 8-11 5-21 6-8 1h-27l-16-3-13-4-19-9-14-10-10-9-7-7-6-8-10 3-18 4-16 1-20-3-14-5-4 2-8 10-11 11-14 10-21 10-17 5-12 2h-27l-20-4-13-5-16-8-11-8-12-11-9-10-3-5-5 1-15 8-15 5-16 3h-28l-17-4-15-6-13-7-13-10-12-12-10-15-7-14-3-11-8-2-21-11-13-10-10-10-10-14-8-16-6-21-1-7v-24l4-18 6-16 8-14 11-13 7-7 14-10 15-8 11-4 8-3v-13l3-18 5-15 7-14 8-11 9-10 11-10 14-9 16-7 18-4 10-1h13l16 2 9 2 1-6 10-21 8-12 9-11 10-10 16-12 16-9 15-6 16-4 15-2h23l19 3 24 8 15 8 14 10 10 9 10 10 10 14 9 17 6 15 2 7 4-10 6-16 9-16 8-11 9-10 8-8 15-11 16-9 21-8 19-4zm-9 19-16 3-17 6-16 8-14 11-8 7-9 11-7 10-8 16-6 18-1 9 17 5 16 8 13 11 7 7 2 3 9-2 17-2 16 1 16 5 16 8 13 10 9 10 8 14 5 12 3 5 21 3 15 5 16 9 10 8 10 10 9 14 7 15 4 15 1 7v21l-3 15-6 16-8 14-11 13-14 11-17 9-17 6-10 17-8 10-10 9-15 9-13 5-19 3h-10l-19-3-16-7-6-2-7 9-11 9v4l11 12 10 9 13 8 14 6 15 4 5 1h25l21-5 16-7 12-8 14-12 10-13 9-16 5 3 15 11 16 8 15 4 7 1h21l18-4 14-6 11-7 10-8 8-8 9-14 6-13 5-16 22-8 14-8 12-11 9-10 9-16 5-14 2-12v-18l-3-16-5-13-6-11-7-9-8-9-14-10-15-7-14-4-15-2 2-10v-20l-3-17-6-15-9-14-9-10-8-7-13-8-14-6-14-3-15-1-16 2-16 5-10 4-4-18-8-20-8-13-8-10-11-11-13-10-12-7-19-7-20-4zm-263 2-20 4-19 7-15 9-14 12-9 9-10 14-9 19-6 22v4l-19-7-14-3h-24l-17 4-12 5-11 7-13 11-11 15-7 15-4 14-1 7v19l2 12-22 4-16 6-12 7-12 11-9 10-8 14-6 18-2 17 1 16 4 16 8 17 9 12 10 10 15 10 18 7 9 2 2 10 6 16 9 14 9 10 8 7 10 7 12 6 16 5 17 2 15-1 19-5 16-8 16-12 3-2 9 16 9 11 13 13 14 9 15 7 16 4 6 1h23l18-4 16-6 16-10 15-14 5-6-1-5-10-8-7-9-6 1-13 6-11 3-9 1h-21l-17-4-17-9-10-8-10-10-9-14-4-7-20-7-16-9-11-9-7-7-12-17-6-14-4-16-1-6v-21l3-16 5-13 8-15 8-10 9-9 14-10 15-7 14-4 19-3 4-12 8-15 9-11 10-9 13-8 10-5 13-3 8-1h14l17 2h6l9-10 11-9 12-7 21-7 1-2-6-20-8-16-8-12-9-10-8-8-16-11-16-8-11-4-20-4zm144 113-21 1-11 4-10 6-11 9-9 12-4 6-21-7-7-1h-13l-15 3-10 4-13 9-9 9-8 13-5 15-2 13-5-1h-13l-14 2-15 5-13 8-15 14-7 10-7 15-3 13v24l4 16 7 14 8 11 7 7 13 9 13 6 15 4 6 2 5 13 7 11 12 12 13 8 16 5 7 1h12l15-3 16-8 11-8 3-1 7 12 9 11 9 7 23 11 11 3 15 1 13-2 12-4 21-11 13-13 8-14 5 2 9 7 14 7 11 3h22l15-4 12-6 11-9 9-11 7-14 2-6 16-4 11-4 11-6 10-8 9-10 8-13 5-12 3-16v-13l-4-18-5-12-6-10-8-10-13-10-14-7-13-4-5-1-24-1-5-21-8-15-11-12-10-7-10-5-9-3-6-1h-19l-13 3-13 5-2-5-8-11-8-8-16-10-16-5-6-1z" fill="#fff"/>
<path transform="translate(909,270)" d="m0 0h19l3 8 28 93 9 30 2 1 3-12 14-42 14-43 11-33 2-2h18l4 9 14 42 12 37 12 36 2 7 2 1 3-12 19-63 9-30 8-26 1-1h11l8 1-3 12-13 44-21 69-8 27-2 5h-25l-4-10-12-36-12-37-12-36-1-4-2-1-3 11-27 81-10 31-1 1h-25l-4-10-14-47-17-56-12-41z" fill="#fff"/>
<path transform="translate(1388,708)" d="m0 0h16l3 5 9 31 12 39 11 39 1 2h2l5-16 28-85 4-13 2-2h16l2 1 18 56 20 60 2-3 9-31 24-80 2-3 17 1-3 11-32 106-7 22-1 1h-21l-4-9-13-40-20-60-2-1-15 47-20 60-3 3h-21l-8-26-33-110-1-4z" fill="#fff"/>
<path transform="translate(45,708)" d="m0 0 18 1 10 34 16 54 8 28 2 1 3-13 7-19 16-49 9-28 3-8 3-1h14l3 3 15 47 15 46 7 21 2-3 11-37 13-43 9-31 2-3h16l1 4-9 29-16 53-12 40-5 15h-20l-3-1-12-36-16-49-8-24-2-1-2 9-14 43-19 57-2 2h-14l-7-1-4-10-20-66-17-57-2-6z" fill="#fff"/>
<path transform="translate(1161,708)" d="m0 0h44l14 2 10 5 6 5 7 10 4 11 1 11-3 13-7 11-9 8-2 2 10 11 7 12 5 16 2 14v9l-1 1h-15l-1-1-2-18-4-13-7-13-7-6-11-5-11-2-29-1v58l-1 1h-15l-1-1v-139zm22 15-21 1v51h41l11-2 9-6 6-10 1-3v-9l-3-8-8-9-8-4-8-1z" fill="#fff"/>
<path transform="translate(815,708)" d="m0 0 17 1v62h83v-62l1-1 17 1-1 140h-16l-1-62-83-1v62l-2 1h-15z" fill="#fff"/>
<path transform="translate(1649,708)" d="m0 0 16 1v62l83-1v-61l3-1 14 1v140h-16l-1-1v-61l-83-1v62l-2 1h-14l-1-1v-139z" fill="#fff"/>
<path transform="translate(520,708)" d="m0 0h19l3 3 11 28 36 90 7 17v3h-16l-3-3-11-28-2-3h-71l-11 28-3 6h-16l-1-3 11-27 28-70 9-23 7-17zm8 18-16 40-11 27-1 6h57l1-3-27-68z" fill="#fff"/>
<path transform="translate(1e3 708)" d="m0 0h87l1 3-1 12-2 1h-80v47h62v15h-62v47h81l1 1v14l-1 1h-97l-1-140z" fill="#fff"/>
<path transform="translate(306,708)" d="m0 0h97l2 3-1 12-61 1h-21l1 46 61 1v7l-2 3-10 3-18 2h-32v47h81l1 1v14l-16 1h-82l-1-1v-139z" fill="#fff"/>
<path transform="translate(1897,708)" d="m0 0h103l1 1v14l-6 9-13 17-14 18-9 12-10 13-9 12-20 26-1 2 81 1 1 1v13l-5 2h-99l-1-1v-15l14-19 11-14 10-13 39-51 8-11-3-1h-21l-57-1-1-2v-12z" fill="#fff"/>
<path transform="translate(654,708)" d="m0 0h103l1 1v14l-7 1h-37v124l-1 1-16-1v-124h-43l-1-1v-14z" fill="#fff"/>
<path transform="translate(1823,708)" d="m0 0 16 1v139l-3 1h-13l-1-1v-139z" fill="#fff"/>
<path transform="translate(1122,712)" d="m0 0 2 1z" fill="#fff"/>
<path transform="translate(1020,813)" d="m0 0" fill="#fff"/>
</svg>
