<?xml version="1.0" encoding="UTF-8"?>
<svg version="1.1" viewBox="0 0 2048 1234" width="1280" height="1280" xmlns="http://www.w3.org/2000/svg">
<path transform="translate(1266,123)" d="m0 0h48l30 4 25 6 28 10 24 12 18 11 14 10 14 11 15 14 13 13 15 20 11 17 8 14 10 22 8 21 3 1 25-5 16-2h36l21 3 21 5 25 9 21 10 16 10 14 10 13 12 13 13 15 20 9 15 8 16 8 20 6 21 4 27 1 10 1 24 18 4 22 9 16 8 16 9 14 10 14 12 14 14 11 14 9 13 9 16 10 21 7 21 5 24 2 16 1 22-2 25-5 23-9 27-11 23-10 16-13 17-12 13-9 9-11 9-14 10-18 10-23 11-13 5-3 5-13 30-9 17-10 15-13 17-8 9h-2l-2 4-12 11-16 13-20 12-16 8-19 8-18 5-26 5-15 1h-26l-18-1-26-6-20-6-20-9-17-9-8-5-3 1-10 13-12 14-19 19-14 11-16 11-26 14-20 8-19 6-20 4-15 2h-50l-20-3-24-6-17-6-24-11-16-9-16-11-11-9-12-11-12-12-9-11-9-12-31 10-13 3-21 3h-28l-27-4-25-7-12-5h-4l-2 4-8 11-14 15-18 18-13 10-18 11-23 12-29 11-20 5-26 4h-48l-23-4-27-7-19-8-19-9-21-13-14-11-20-18-8-8-11-14-8-10-5 1-22 12-20 8-21 7-26 5-7 1h-49l-28-5-23-7-21-9-18-10-17-12-11-9-13-12-7-8-13-16-10-15-12-23-9-23-3-8-20-7-19-9-19-11-17-13-12-11-13-13-13-17-10-15-11-22-7-19-6-20-4-26v-43l4-24 6-21 8-20 8-16 9-15 10-13 11-12 7-8 12-11 13-10 18-11 17-9 20-8 21-6 2-1 1-31 4-27 6-21 6-16 11-22 14-21 11-14 21-21 17-13 15-10 23-12 19-7 26-6 15-2 13-1h20l22 2 22 4 9 2 3-10 10-25 10-19 12-19 16-20 9-10 14-14 11-9 14-11 15-10 18-10 19-9 19-7 26-7 16-3 22-2h38l28 3 28 7 29 10 18 8 19 11 18 13 13 10 10 9 21 21 11 14 10 14 13 23 10 21 10 27 3 9h3l3-11 7-21 8-19 12-23 11-17 10-13 8-10 26-26 14-11 14-10 13-8 25-13 20-8 25-8 24-5zm13 35-20 2-25 5-21 7-25 11-18 10-12 8-9 7-14 12-14 14-11 14-10 13-13 22-10 21-9 27-4 17v7l11 4 23 7 16 7 17 10 16 13 12 11 9 9 5 7 4 1 15-4 22-3h25l23 3 25 7 18 8 17 9 14 11 12 11 11 11 11 15 8 14 7 15 8 21 4 3 18 2 28 6 21 7 21 10 17 11 14 11 13 12 9 11 8 10 10 16 9 17 8 21 5 21 3 22v30l-3 21-5 20-8 21-12 23-11 16-9 11-13 13-14 11-14 10-15 9-19 8-24 8-6 3-11 21-8 12-9 12-7 7-7 8-11 9-11 8-15 9-21 9-14 4-22 4-13 1h-16l-19-2-19-4-21-8-13-6-8-4-4 1-9 11-5 6-11 9-13 11 1 4 9 12 11 12 9 9 16 12 18 12 21 10 16 6 18 5 15 3 9 1h41l27-5 23-7 21-9 22-13 13-10 9-8 8-7 11-11 12-16 9-15 11-20v-2l5 2 11 10 13 10 15 10 16 8 15 6 17 5 22 4h44l25-5 18-6 20-9 16-9 13-10 11-9 13-13 11-14 9-14 11-21 7-19 6-22 40-14 21-11 17-12 11-9 13-13 13-17 8-13 7-12 7-18 6-24 3-20v-26l-4-24-6-22-8-19-10-18-10-14-11-12-7-8-16-13-19-12-16-8-19-7-27-6-18-3v-9l2-19v-24l-2-19-3-15-6-20-10-22-13-20-13-15-13-13-17-13-15-9-14-7-19-7-15-4-19-3h-33l-20 3-19 5-28 11-5 1-7-28-10-30-8-17-10-17-11-16-11-13-12-13-11-10-14-11-10-7-13-8-16-8-20-8-24-7-14-3-14-2-13-1zm-519 4-29 3-23 5-21 7-19 8-17 9-14 9-13 10-13 11-14 14-8 10-12 16-9 15-8 16-8 19-5 17-7 29v2l-25-10-15-5-25-5-8-1h-27l-18 2-21 5-25 10-19 10-16 12-14 12-7 7-10 13-11 18-9 19-8 24-3 15-2 22v14l3 29v5l-20 4-21 4-18 6-20 9-15 9-13 10-12 11-11 11-10 13-9 14-8 17-8 22-5 22-1 10v31l3 20 5 20 6 16 8 16 6 11 10 13 11 12 4 5 8 7 13 10 17 11 15 7 17 6 21 6 4 10 6 20 5 13 8 16 9 14 12 16 13 14 11 9 15 11 19 11 21 9 17 5 24 4 8 1h19l20-2 25-6 16-6 21-10 15-10 22-18 5-4h2l12 23 12 18 11 13 7 8 9 9 8 7 15 11 13 8 27 13 18 6 26 5 25 2 21-1 26-4 21-6 22-9 18-10 16-11 13-11 10-9 10-11 9-11-1-5-13-11-12-10-9-11-4-5h-6l-17 8-21 8-20 4-12 2-13 1h-15l-15-1-25-6-21-9-17-9-12-8-13-11-15-15-10-13-12-20-7-13-8-3-30-10-16-8-16-10-16-12-13-12-11-12-11-15-12-20-8-18-6-18-4-18-2-17v-34l3-22 5-19 8-21 10-19 10-15 9-11 14-15 10-9 13-10 15-9 23-11 26-8 21-4 19-2 2-1 7-21 10-21 12-18 11-13 14-14 12-9 16-10 16-8 15-6 21-5 22-2h18l26 2 16 3h5l9-9 7-8 11-11 18-13 15-9 16-7 18-6 14-4 1-3-4-18-9-27-8-17-10-17-11-16-8-10-9-10-14-14-13-10-15-11-19-11-20-9-18-7-24-6-22-3-13-1zm236 226-21 6-19 9-19 14-12 11-10 12-10 15-5 7v2l-17-6-19-7-7-2-17-2h-17l-17 2-19 5-15 6-20 12-13 11-7 6-9 11-7 10-10 19-5 14-4 19-3 16-13-1h-23l-19 2-19 5-15 5-17 9-17 12-10 9-8 7-10 11-10 15-8 14-9 23-5 23-1 14v17l2 19 5 20 8 20 8 15 12 17 12 13 11 10 17 12 19 10 16 6 21 5 14 3 4 8 8 19 7 13 9 12 12 13 12 10 15 10 17 8 21 6 13 2h30l18-3 18-6 16-8 12-8 18-14 4-2 2 5 10 17 12 16 12 13 11 9 29 15 10 5 20 7 10 2 23 2 18-1 18-3 18-6 21-10 18-10 9-6 10-9 7-7 11-15 13-22 9 6 12 10 18 11 16 7 20 5 7 1h28l15-2 19-5 13-5 14-7 12-9 11-9v-2l3-1 7-8 10-14 9-17 8-21 1-1 23-4 21-7 19-9 19-12 13-11 8-8 9-11 8-11 8-14 8-18 6-24 2-15v-25l-3-20-6-21-7-17-8-14-12-17-9-10-13-12-14-10-16-9-16-7-21-6-14-2h-43l-2-6-5-24-5-15-8-16-7-12-9-11-12-12-16-12-14-8-20-8-17-4-6-1h-32l-20 4-20 7-10 4-4-2-12-18-11-14-13-12-17-12-10-6-15-6-24-7-6-1h-36l-14 1z" fill="#fff"/>
<path transform="translate(822,544)" d="m0 0 22 1 3 3 14 46 9 31 21 71 10 34 17 55 7 21h2l6-15 26-78 13-41 15-45 14-43 12-36 2-3 17-1 21 1 4 9 28 86 14 42 14 44 13 38 12 36 3 8 2-2 11-35 18-60 14-47 12-40 14-47 7-23 4-8 1-1h34l2 1-1 7-10 34-15 49-8 28-14 46-14 47-17 55-11 38-4 8h-48l-4-8-30-91-19-58-14-43-15-44-4-4-1 8-13 36-12 36-17 52-14 43-22 67-4 6h-47l-3-4-12-40-22-74-20-66-16-52-5-16-16-56v-4z" fill="#fff"/>
<path transform="translate(547,584)" d="m0 0m-2 1 2 1-27 27v-3l14-15z" fill="#fff"/>
<path transform="translate(151,573)" d="m0 0m-2 1 2 1-27 27v-3l16-17z" fill="#fff"/>
</svg>
