<svg width="1224" height="497" viewBox="0 0 1224 497" fill="none" xmlns="http://www.w3.org/2000/svg">
<path d="M691.25 0L704.375 0.625L716.875 3.125L727.5 6.875L738.125 12.5L748.125 20L755.625 26.875L761.25 33.75L767.5 43.75L771.875 53.125L773.75 59.375L780.625 57.5L784.375 56.875H803.125L813.75 59.375L823.125 63.125L831.875 68.125L838.125 73.125L845.625 80.625L851.25 88.75L855.625 97.5L858.75 107.5L860 113.75L860.625 120V127.5L867.5 128.75L878.75 133.75L885.625 138.125L892.5 143.75L897.5 148.75L903.75 157.5L908.75 167.5L911.875 177.5L913.75 189.375V196.875L911.875 208.75L908.125 220L902.5 230L897.5 236.25L894.375 240L889.375 244.375L881.25 250L871.25 255L866.25 256.875L863.75 263.125L858.75 273.125L851.875 283.125L845.625 289.375L837.5 295.625L827.5 301.25L816.875 305L808.125 306.875L800 307.5L788.75 306.875L776.25 303.75L766.25 299.375L760.625 296.25L758.75 296.875L753.125 304.375L748.125 309.375L740 315.625L731.25 320.625L724.375 323.75L711.25 327.5L706.25 328.125H689.375L679.375 326.25L671.25 323.75L659.375 318.125L650.625 311.875L644.375 306.25L640 301.875L636.25 296.875L630 298.75L618.75 301.25L608.75 301.875L596.25 300L587.5 296.875L585 298.125L580 304.375L573.125 311.25L564.375 317.5L551.25 323.75L540.625 326.875L533.125 328.125H516.25L503.75 325.625L495.625 322.5L485.625 317.5L478.75 312.5L471.25 305.625L465.625 299.375L463.75 296.25L460.625 296.875L451.25 301.875L441.875 305L431.875 306.875H414.375L403.75 304.375L394.375 300.625L386.25 296.25L378.125 290L370.625 282.5L364.375 273.125L360 264.375L358.125 257.5L353.125 256.25L340 249.375L331.875 243.125L325.625 236.875L319.375 228.125L314.375 218.125L310.625 205L310 200.625V185.625L312.5 174.375L316.25 164.375L321.25 155.625L328.125 147.5L332.5 143.125L341.25 136.875L350.625 131.875L357.5 129.375L362.5 127.5V119.375L364.375 108.125L367.5 98.75L371.875 90L376.875 83.125L382.5 76.875L389.375 70.625L398.125 65L408.125 60.625L419.375 58.125L425.625 57.5H433.75L443.75 58.75L449.375 60L450 56.25L456.25 43.125L461.25 35.625L466.875 28.75L473.125 22.5L483.125 15L493.125 9.375L502.5 5.625L512.5 3.125L521.875 1.875H536.25L548.125 3.75L563.125 8.75L572.5 13.75L581.25 20L587.5 25.625L593.75 31.875L600 40.625L605.625 51.25L609.375 60.625L610.625 65L613.125 58.75L616.875 48.75L622.5 38.75L627.5 31.875L633.125 25.625L638.125 20.625L647.5 13.75L657.5 8.125L670.625 3.125L682.5 0.625L691.25 0ZM685.625 11.875L675.625 13.75L665 17.5L655 22.5L646.25 29.375L641.25 33.75L635.625 40.625L631.25 46.875L626.25 56.875L622.5 68.125L621.875 73.75L632.5 76.875L642.5 81.875L650.625 88.75L655 93.125L656.25 95L661.875 93.75L672.5 92.5L682.5 93.125L692.5 96.25L702.5 101.25L710.625 107.5L716.25 113.75L721.25 122.5L724.375 130L726.25 133.125L739.375 135L748.75 138.125L758.75 143.75L765 148.75L771.25 155L776.875 163.75L781.25 173.125L783.75 182.5L784.375 186.875V200L782.5 209.375L778.75 219.375L773.75 228.125L766.875 236.25L758.125 243.125L747.5 248.75L736.875 252.5L730.625 263.125L725.625 269.375L719.375 275L710 280.625L701.875 283.75L690 285.625H683.75L671.875 283.75L661.875 279.375L658.125 278.125L653.75 283.75L646.875 289.375V291.875L653.75 299.375L660 305L668.125 310L676.875 313.75L686.25 316.25L689.375 316.875H705L718.125 313.75L728.125 309.375L735.625 304.375L744.375 296.875L750.625 288.75L756.25 278.75L759.375 280.625L768.75 287.5L778.75 292.5L788.125 295L792.5 295.625H805.625L816.875 293.125L825.625 289.375L832.5 285L838.75 280L843.75 275L849.375 266.25L853.125 258.125L856.25 248.125L870 243.125L878.75 238.125L886.25 231.25L891.875 225L897.5 215L900.625 206.25L901.875 198.75V187.5L900 177.5L896.875 169.375L893.125 162.5L888.75 156.875L883.75 151.25L875 145L865.625 140.625L856.875 138.125L847.5 136.875L848.75 130.625V118.125L846.875 107.5L843.125 98.125L837.5 89.375L831.875 83.125L826.875 78.75L818.75 73.75L810 70L801.25 68.125L791.875 67.5L781.875 68.75L771.875 71.875L765.625 74.375L763.125 63.125L758.125 50.625L753.125 42.5L748.125 36.25L741.25 29.375L733.125 23.125L725.625 18.75L713.75 14.375L701.25 11.875H685.625ZM521.25 13.125L508.75 15.625L496.875 20L487.5 25.625L478.75 33.125L473.125 38.75L466.875 47.5L461.25 59.375L457.5 73.125V75.625L445.625 71.25L436.875 69.375H421.875L411.25 71.875L403.75 75L396.875 79.375L388.75 86.25L381.875 95.625L377.5 105L375 113.75L374.375 118.125V130L375.625 137.5L361.875 140L351.875 143.75L344.375 148.125L336.875 155L331.25 161.25L326.25 170L322.5 181.25L321.25 191.875L321.875 201.875L324.375 211.875L329.375 222.5L335 230L341.25 236.25L350.625 242.5L361.875 246.875L367.5 248.125L368.75 254.375L372.5 264.375L378.125 273.125L383.75 279.375L388.75 283.75L395 288.125L402.5 291.875L412.5 295L423.125 296.25L432.5 295.625L444.375 292.5L454.375 287.5L464.375 280L466.25 278.75L471.875 288.75L477.5 295.625L485.625 303.75L494.375 309.375L503.75 313.75L513.75 316.25L517.5 316.875H531.875L543.125 314.375L553.125 310.625L563.125 304.375L572.5 295.625L575.625 291.875L575 288.75L568.75 283.75L564.375 278.125L560.625 278.75L552.5 282.5L545.625 284.375L540 285H526.875L516.25 282.5L505.625 276.875L499.375 271.875L493.125 265.625L487.5 256.875L485 252.5L472.5 248.125L462.5 242.5L455.625 236.875L451.25 232.5L443.75 221.875L440 213.125L437.5 203.125L436.875 199.375V186.25L438.75 176.25L441.875 168.125L446.875 158.75L451.875 152.5L457.5 146.875L466.25 140.625L475.625 136.25L484.375 133.75L496.25 131.875L498.75 124.375L503.75 115L509.375 108.125L515.625 102.5L523.75 97.5L530 94.375L538.125 92.5L543.125 91.875H551.875L562.5 93.125H566.25L571.875 86.875L578.75 81.25L586.25 76.875L599.375 72.5L600 71.25L596.25 58.75L591.25 48.75L586.25 41.25L580.625 35L575.625 30L565.625 23.125L555.625 18.125L548.75 15.625L536.25 13.125H521.25ZM611.25 83.75L598.125 84.375L591.25 86.875L585 90.625L578.125 96.25L572.5 103.75L570 107.5L556.875 103.125L552.5 102.5H544.375L535 104.375L528.75 106.875L520.625 112.5L515 118.125L510 126.25L506.875 135.625L505.625 143.75L502.5 143.125H494.375L485.625 144.375L476.25 147.5L468.125 152.5L458.75 161.25L454.375 167.5L450 176.875L448.125 185V200L450.625 210L455 218.75L460 225.625L464.375 230L472.5 235.625L480.625 239.375L490 241.875L493.75 243.125L496.875 251.25L501.25 258.125L508.75 265.625L516.875 270.625L526.875 273.75L531.25 274.375H538.75L548.125 272.5L558.125 267.5L565 262.5L566.875 261.875L571.25 269.375L576.875 276.25L582.5 280.625L596.875 287.5L603.75 289.375L613.125 290L621.25 288.75L628.75 286.25L641.875 279.375L650 271.25L655 262.5L658.125 263.75L663.75 268.125L672.5 272.5L679.375 274.375H693.125L702.5 271.875L710 268.125L716.875 262.5L722.5 255.625L726.875 246.875L728.125 243.125L738.125 240.625L745 238.125L751.875 234.375L758.125 229.375L763.75 223.125L768.75 215L771.875 207.5L773.75 197.5V189.375L771.25 178.125L768.125 170.625L764.375 164.375L759.375 158.125L751.25 151.875L742.5 147.5L734.375 145L731.25 144.375L716.25 143.75L713.125 130.625L708.125 121.25L701.25 113.75L695 109.375L688.75 106.25L683.125 104.375L679.375 103.75H667.5L659.375 105.625L651.25 108.75L650 105.625L645 98.75L640 93.75L630 87.5L620 84.375L616.25 83.75H611.25Z" fill="black"/>
<path d="M540.625 135H552.5L554.375 140L577.5 216.875L578.75 217.5L580.625 210L589.375 183.75L598.125 156.875L605 136.25L606.25 135H617.5L620 140.625L628.75 166.875L636.25 190L643.75 212.5L645 216.875L646.25 217.5L648.125 210L660 170.625L665.625 151.875L670.625 135.625L671.25 135H678.125L683.125 135.625L681.25 143.125L673.125 170.625L660 213.75L655 230.625L653.75 233.75H638.125L635.625 227.5L628.125 205L620.625 181.875L613.125 159.375L612.5 156.875L611.25 156.25L609.375 163.125L592.5 213.75L586.25 233.125L585.625 233.75H570L567.5 227.5L558.75 198.125L548.125 163.125L540.625 137.5V135Z" fill="black"/>
<path d="M840 408.75H850L851.875 411.875L857.5 431.25L865 455.625L871.875 480L872.5 481.25H873.75L876.875 471.25L894.375 418.125L896.875 410L898.125 408.75H908.125L909.375 409.375L920.625 444.375L933.125 481.875L934.375 480L940 460.625L955 410.625L956.25 408.75L966.875 409.375L965 416.25L945 482.5L940.625 496.25L940 496.875H926.875L924.375 491.25L916.25 466.25L903.75 428.75L902.5 428.125L893.125 457.5L880.625 495L878.75 496.875H865.625L860.625 480.625L840 411.875L839.375 409.375L840 408.75Z" fill="black"/>
<path d="M0.625 408.75L11.875 409.375L18.125 430.625L28.125 464.375L33.125 481.875L34.375 482.5L36.25 474.375L40.625 462.5L50.625 431.875L56.25 414.375L58.125 409.375L60 408.75H68.75L70.625 410.625L80 440L89.375 468.75L93.75 481.875L95 480L101.875 456.875L110 430L115.625 410.625L116.875 408.75H126.875L127.5 411.25L121.875 429.375L111.875 462.5L104.375 487.5L101.25 496.875H88.75L86.875 496.25L79.375 473.75L69.375 443.125L64.375 428.125L63.125 427.5L61.875 433.125L53.125 460L41.25 495.625L40 496.875H31.25L26.875 496.25L24.375 490L11.875 448.75L1.25 413.125L0 409.375L0.625 408.75Z" fill="black"/>
<path d="M698.125 408.75H725.625L734.375 410L740.625 413.125L744.375 416.25L748.75 422.5L751.25 429.375L751.875 436.25L750 444.375L745.625 451.25L740 456.25L738.75 457.5L745 464.375L749.375 471.875L752.5 481.875L753.75 490.625V496.25L753.125 496.875H743.75L743.125 496.25L741.875 485L739.375 476.875L735 468.75L730.625 465L723.75 461.875L716.875 460.625L698.75 460V496.25L698.125 496.875H688.75L688.125 496.25V409.375L698.125 408.75ZM711.875 418.125L698.75 418.75V450.625H724.375L731.25 449.375L736.875 445.625L740.625 439.375L741.25 437.5V431.875L739.375 426.875L734.375 421.25L729.375 418.75L724.375 418.125H711.875Z" fill="black"/>
<path d="M481.875 408.75L492.5 409.375V448.125H544.375V409.375L545 408.75L555.625 409.375L555 496.875H545L544.375 458.125L492.5 457.5V496.25L491.25 496.875H481.875V408.75Z" fill="black"/>
<path d="M1003.12 408.75L1013.12 409.375V448.125L1065 447.5V409.375L1066.88 408.75L1075.62 409.375V496.875H1065.62L1065 496.25V458.125L1013.12 457.5V496.25L1011.88 496.875H1003.12L1002.5 496.25V409.375L1003.12 408.75Z" fill="black"/>
<path d="M297.5 408.75H309.375L311.25 410.625L318.125 428.125L340.625 484.375L345 495V496.875H335L333.125 495L326.25 477.5L325 475.625H280.625L273.75 493.125L271.875 496.875H261.875L261.25 495L268.125 478.125L285.625 434.375L291.25 420L295.625 409.375L297.5 408.75ZM302.5 420L292.5 445L285.625 461.875L285 465.625H320.625L321.25 463.75L304.375 421.25L302.5 420Z" fill="black"/>
<path d="M597.5 408.75H651.875L652.5 410.625L651.875 418.125L650.625 418.75H600.625V448.125H639.375V457.5H600.625V486.875H651.25L651.875 487.5V496.25L651.25 496.875H590.625L590 409.375L597.5 408.75Z" fill="black"/>
<path d="M163.75 408.75H224.375L225.625 410.625L225 418.125L186.875 418.75H173.75L174.375 447.5L212.5 448.125V452.5L211.25 454.375L205 456.25L193.75 457.5H173.75V486.875H224.375L225 487.5V496.25L215 496.875H163.75L163.125 496.25V409.375L163.75 408.75Z" fill="black"/>
<path d="M1158.12 408.75H1222.5L1223.12 409.375V418.125L1219.38 423.75L1211.25 434.375L1202.5 445.625L1196.88 453.125L1190.62 461.25L1185 468.75L1172.5 485L1171.88 486.25L1222.5 486.875L1223.12 487.5V495.625L1220 496.875H1158.12L1157.5 496.25V486.875L1166.25 475L1173.12 466.25L1179.38 458.125L1203.75 426.25L1208.75 419.375L1206.88 418.75H1193.75L1158.12 418.125L1157.5 416.875V409.375L1158.12 408.75Z" fill="black"/>
<path d="M381.25 408.75H445.625L446.25 409.375V418.125L441.875 418.75H418.75V496.25L418.125 496.875L408.125 496.25V418.75H381.25L380.625 418.125V409.375L381.25 408.75Z" fill="black"/>
<path d="M1111.88 408.75L1121.88 409.375V496.25L1120 496.875H1111.88L1111.25 496.25V409.375L1111.88 408.75Z" fill="black"/>
</svg>
