<svg width="1199" height="652" viewBox="0 0 1199 652" fill="none" xmlns="http://www.w3.org/2000/svg">
<path d="M745 0H775L793.75 2.5L809.375 6.25L826.875 12.5L841.875 20L853.125 26.875L861.875 33.125L870.625 40L880 48.75L888.125 56.875L897.5 69.375L904.375 80L909.375 88.75L915.625 102.5L920.625 115.625L922.5 116.25L938.125 113.125L948.125 111.875H970.625L983.75 113.75L996.875 116.875L1012.5 122.5L1025.62 128.75L1035.62 135L1044.38 141.25L1052.5 148.75L1060.62 156.875L1070 169.375L1075.62 178.75L1080.62 188.75L1085.62 201.25L1089.38 214.375L1091.88 231.25L1092.5 237.5L1093.12 252.5L1104.38 255L1118.12 260.625L1128.12 265.625L1138.12 271.25L1146.88 277.5L1155.62 285L1164.38 293.75L1171.25 302.5L1176.88 310.625L1182.5 320.625L1188.75 333.75L1193.12 346.875L1196.25 361.875L1197.5 371.875L1198.12 385.625L1196.88 401.25L1193.75 415.625L1188.12 432.5L1181.25 446.875L1175 456.875L1166.88 467.5L1159.38 475.625L1153.75 481.25L1146.88 486.875L1138.12 493.125L1126.88 499.375L1112.5 506.25L1104.38 509.375L1102.5 512.5L1094.38 531.25L1088.75 541.875L1082.5 551.25L1074.38 561.875L1069.38 567.5H1068.12L1066.88 570L1059.38 576.875L1049.38 585L1036.88 592.5L1026.88 597.5L1015 602.5L1003.75 605.625L987.5 608.75L978.125 609.375H961.875L950.625 608.75L934.375 605L921.875 601.25L909.375 595.625L898.75 590L893.75 586.875L891.875 587.5L885.625 595.625L878.125 604.375L866.25 616.25L857.5 623.125L847.5 630L831.25 638.75L818.75 643.75L806.875 647.5L794.375 650L785 651.25H753.75L741.25 649.375L726.25 645.625L715.625 641.875L700.625 635L690.625 629.375L680.625 622.5L673.75 616.875L666.25 610L658.75 602.5L653.125 595.625L647.5 588.125L628.125 594.375L620 596.25L606.875 598.125H589.375L572.5 595.625L556.875 591.25L549.375 588.125H546.875L545.625 590.625L540.625 597.5L531.875 606.875L520.625 618.125L512.5 624.375L501.25 631.25L486.875 638.75L468.75 645.625L456.25 648.75L440 651.25H410L395.625 648.75L378.75 644.375L366.875 639.375L355 633.75L341.875 625.625L333.125 618.75L320.625 607.5L315.625 602.5L308.75 593.75L303.75 587.5L300.625 588.125L286.875 595.625L274.375 600.625L261.25 605L245 608.125L240.625 608.75H210L192.5 605.625L178.125 601.25L165 595.625L153.75 589.375L143.125 581.875L136.25 576.25L128.125 568.75L123.75 563.75L115.625 553.75L109.375 544.375L101.875 530L96.25 515.625L94.375 510.625L81.875 506.25L70 500.625L58.125 493.75L47.5 485.625L40 478.75L31.875 470.625L23.75 460L17.5 450.625L10.625 436.875L6.25 425L2.5 412.5L0 396.25V369.375L2.5 354.375L6.25 341.25L11.25 328.75L16.25 318.75L21.875 309.375L28.125 301.25L35 293.75L39.375 288.75L46.875 281.875L55 275.625L66.25 268.75L76.875 263.125L89.375 258.125L102.5 254.375L103.75 253.75L104.375 234.375L106.875 217.5L110.625 204.375L114.375 194.375L121.25 180.625L130 167.5L136.875 158.75L150 145.625L160.625 137.5L170 131.25L184.375 123.75L196.25 119.375L212.5 115.625L221.875 114.375L230 113.75H242.5L256.25 115L270 117.5L275.625 118.75L277.5 112.5L283.75 96.875L290 85L297.5 73.125L307.5 60.625L313.125 54.375L321.875 45.625L328.75 40L337.5 33.125L346.875 26.875L358.125 20.625L370 15L381.875 10.625L398.125 6.25L408.125 4.375L421.875 3.125H445.625L463.125 5L480.625 9.375L498.75 15.625L510 20.625L521.875 27.5L533.125 35.625L541.25 41.875L547.5 47.5L560.625 60.625L567.5 69.375L573.75 78.125L581.875 92.5L588.125 105.625L594.375 122.5L596.25 128.125H598.125L600 121.25L604.375 108.125L609.375 96.25L616.875 81.875L623.75 71.25L630 63.125L635 56.875L651.25 40.625L660 33.75L668.75 27.5L676.875 22.5L692.5 14.375L705 9.375L720.625 4.375L735.625 1.25L745 0ZM753.125 21.875L740.625 23.125L725 26.25L711.875 30.625L696.25 37.5L685 43.75L677.5 48.75L671.875 53.125L663.125 60.625L654.375 69.375L647.5 78.125L641.25 86.25L633.125 100L626.875 113.125L621.25 130L618.75 140.625V145L625.625 147.5L640 151.875L650 156.25L660.625 162.5L670.625 170.625L678.125 177.5L683.75 183.125L686.875 187.5L689.375 188.125L698.75 185.625L712.5 183.75H728.125L742.5 185.625L758.125 190L769.375 195L780 200.625L788.75 207.5L796.25 214.375L803.125 221.25L810 230.625L815 239.375L819.375 248.75L824.375 261.875L826.875 263.75L838.125 265L855.625 268.75L868.75 273.125L881.875 279.375L892.5 286.25L901.25 293.125L909.375 300.625L915 307.5L920 313.75L926.25 323.75L931.875 334.375L936.875 347.5L940 360.625L941.875 374.375V393.125L940 406.25L936.875 418.75L931.875 431.875L924.375 446.25L917.5 456.25L911.875 463.125L903.75 471.25L895 478.125L886.25 484.375L876.875 490L865 495L850 500L846.25 501.875L839.375 515L834.375 522.5L828.75 530L824.375 534.375L820 539.375L813.125 545L806.25 550L796.875 555.625L783.75 561.25L775 563.75L761.25 566.25L753.125 566.875H743.125L731.25 565.625L719.375 563.125L706.25 558.125L698.125 554.375L693.125 551.875L690.625 552.5L685 559.375L681.875 563.125L675 568.75L666.875 575.625L667.5 578.125L673.125 585.625L680 593.125L685.625 598.75L695.625 606.25L706.875 613.75L720 620L730 623.75L741.25 626.875L750.625 628.75L756.25 629.375H781.875L798.75 626.25L813.125 621.875L826.25 616.25L840 608.125L848.125 601.875L853.75 596.875L858.75 592.5L865.625 585.625L873.125 575.625L878.75 566.25L885.625 553.75V552.5L888.75 553.75L895.625 560L903.75 566.25L913.125 572.5L923.125 577.5L932.5 581.25L943.125 584.375L956.875 586.875H984.375L1000 583.75L1011.25 580L1023.75 574.375L1033.75 568.75L1041.88 562.5L1048.75 556.875L1056.88 548.75L1063.75 540L1069.38 531.25L1076.25 518.125L1080.62 506.25L1084.38 492.5L1109.38 483.75L1122.5 476.875L1133.12 469.375L1140 463.75L1148.12 455.625L1156.25 445L1161.25 436.875L1165.62 429.375L1170 418.125L1173.75 403.125L1175.62 390.625V374.375L1173.12 359.375L1169.38 345.625L1164.38 333.75L1158.12 322.5L1151.88 313.75L1145 306.25L1140.62 301.25L1130.62 293.125L1118.75 285.625L1108.75 280.625L1096.88 276.25L1080 272.5L1068.75 270.625V265L1070 253.125V238.125L1068.75 226.25L1066.88 216.875L1063.12 204.375L1056.88 190.625L1048.75 178.125L1040.62 168.75L1032.5 160.625L1021.88 152.5L1012.5 146.875L1003.75 142.5L991.875 138.125L982.5 135.625L970.625 133.75H950L937.5 135.625L925.625 138.75L908.125 145.625L905 146.25L900.625 128.75L894.375 110L889.375 99.375L883.125 88.75L876.25 78.75L869.375 70.625L861.875 62.5L855 56.25L846.25 49.375L840 45L831.875 40L821.875 35L809.375 30L794.375 25.625L785.625 23.75L776.875 22.5L768.75 21.875H753.125ZM428.75 24.375L410.625 26.25L396.25 29.375L383.125 33.75L371.25 38.75L360.625 44.375L351.875 50L343.75 56.25L335.625 63.125L326.875 71.875L321.875 78.125L314.375 88.125L308.75 97.5L303.75 107.5L298.75 119.375L295.625 130L291.25 148.125V149.375L275.625 143.125L266.25 140L250.625 136.875L245.625 136.25H228.75L217.5 137.5L204.375 140.625L188.75 146.875L176.875 153.125L166.875 160.625L158.125 168.125L153.75 172.5L147.5 180.625L140.625 191.875L135 203.75L130 218.75L128.125 228.125L126.875 241.875V250.625L128.75 268.75V271.875L116.25 274.375L103.125 276.875L91.875 280.625L79.375 286.25L70 291.875L61.875 298.125L54.375 305L47.5 311.875L41.25 320L35.625 328.75L30.625 339.375L25.625 353.125L22.5 366.875L21.875 373.125V392.5L23.75 405L26.875 417.5L30.625 427.5L35.625 437.5L39.375 444.375L45.625 452.5L52.5 460L55 463.125L60 467.5L68.125 473.75L78.75 480.625L88.125 485L98.75 488.75L111.875 492.5L114.375 498.75L118.125 511.25L121.25 519.375L126.25 529.375L131.875 538.125L139.375 548.125L147.5 556.875L154.375 562.5L163.75 569.375L175.625 576.25L188.75 581.875L199.375 585L214.375 587.5L219.375 588.125H231.25L243.75 586.875L259.375 583.125L269.375 579.375L282.5 573.125L291.875 566.875L305.625 555.625L308.75 553.125H310L317.5 567.5L325 578.75L331.875 586.875L336.25 591.875L341.875 597.5L346.875 601.875L356.25 608.75L364.375 613.75L381.25 621.875L392.5 625.625L408.75 628.75L424.375 630L437.5 629.375L453.75 626.875L466.875 623.125L480.625 617.5L491.875 611.25L501.875 604.375L510 597.5L516.25 591.875L522.5 585L528.125 578.125L527.5 575L519.375 568.125L511.875 561.875L506.25 555L503.75 551.875H500L489.375 556.875L476.25 561.875L463.75 564.375L456.25 565.625L448.125 566.25H438.75L429.375 565.625L413.75 561.875L400.625 556.25L390 550.625L382.5 545.625L374.375 538.75L365 529.375L358.75 521.25L351.25 508.75L346.875 500.625L341.875 498.75L323.125 492.5L313.125 487.5L303.125 481.25L293.125 473.75L285 466.25L278.125 458.75L271.25 449.375L263.75 436.875L258.75 425.625L255 414.375L252.5 403.125L251.25 392.5V371.25L253.125 357.5L256.25 345.625L261.25 332.5L267.5 320.625L273.75 311.25L279.375 304.375L288.125 295L294.375 289.375L302.5 283.125L311.875 277.5L326.25 270.625L342.5 265.625L355.625 263.125L367.5 261.875L368.75 261.25L373.125 248.125L379.375 235L386.875 223.75L393.75 215.625L402.5 206.875L410 201.25L420 195L430 190L439.375 186.25L452.5 183.125L466.25 181.875H477.5L493.75 183.125L503.75 185H506.875L512.5 179.375L516.875 174.375L523.75 167.5L535 159.375L544.375 153.75L554.375 149.375L565.625 145.625L574.375 143.125L575 141.25L572.5 130L566.875 113.125L561.875 102.5L555.625 91.875L548.75 81.875L543.75 75.625L538.125 69.375L529.375 60.625L521.25 54.375L511.875 47.5L500 40.625L487.5 35L476.25 30.625L461.25 26.875L447.5 25L439.375 24.375H428.75ZM576.25 165.625L563.125 169.375L551.25 175L539.375 183.75L531.875 190.625L525.625 198.125L519.375 207.5L516.25 211.875V213.125L505.625 209.375L493.75 205L489.375 203.75L478.75 202.5H468.125L457.5 203.75L445.625 206.875L436.25 210.625L423.75 218.125L415.625 225L411.25 228.75L405.625 235.625L401.25 241.875L395 253.75L391.875 262.5L389.375 274.375L387.5 284.375L379.375 283.75H365L353.125 285L341.25 288.125L331.875 291.25L321.25 296.875L310.625 304.375L304.375 310L299.375 314.375L293.125 321.25L286.875 330.625L281.875 339.375L276.25 353.75L273.125 368.125L272.5 376.875V387.5L273.75 399.375L276.875 411.875L281.875 424.375L286.875 433.75L294.375 444.375L301.875 452.5L308.75 458.75L319.375 466.25L331.25 472.5L341.25 476.25L354.375 479.375L363.125 481.25L365.625 486.25L370.625 498.125L375 506.25L380.625 513.75L388.125 521.875L395.625 528.125L405 534.375L415.625 539.375L428.75 543.125L436.875 544.375H455.625L466.875 542.5L478.125 538.75L488.125 533.75L495.625 528.75L506.875 520L509.375 518.75L510.625 521.875L516.875 532.5L524.375 542.5L531.875 550.625L538.75 556.25L556.875 565.625L563.125 568.75L575.625 573.125L581.875 574.375L596.25 575.625L607.5 575L618.75 573.125L630 569.375L643.125 563.125L654.375 556.875L660 553.125L666.25 547.5L670.625 543.125L677.5 533.75L685.625 520L691.25 523.75L698.75 530L710 536.875L720 541.25L732.5 544.375L736.875 545H754.375L763.75 543.75L775.625 540.625L783.75 537.5L792.5 533.125L800 527.5L806.875 521.875V520.625L808.75 520L813.125 515L819.375 506.25L825 495.625L830 482.5L830.625 481.875L845 479.375L858.125 475L870 469.375L881.875 461.875L890 455L895 450L900.625 443.125L905.625 436.25L910.625 427.5L915.625 416.25L919.375 401.25L920.625 391.875V376.25L918.75 363.75L915 350.625L910.625 340L905.625 331.25L898.125 320.625L892.5 314.375L884.375 306.875L875.625 300.625L865.625 295L855.625 290.625L842.5 286.875L833.75 285.625H806.875L805.625 281.875L802.5 266.875L799.375 257.5L794.375 247.5L790 240L784.375 233.125L776.875 225.625L766.875 218.125L758.125 213.125L745.625 208.125L735 205.625L731.25 205H711.25L698.75 207.5L686.25 211.875L680 214.375L677.5 213.125L670 201.875L663.125 193.125L655 185.625L644.375 178.125L638.125 174.375L628.75 170.625L613.75 166.25L610 165.625H587.5L578.75 166.25L576.25 165.625Z" fill="#000"/>
<path d="M467.5 263.125L481.25 263.75L483.125 265.625L491.875 294.375L497.5 313.75L510.625 358.125L516.875 379.375L527.5 413.75L531.875 426.875H533.125L536.875 417.5L553.125 368.75L561.25 343.125L570.625 315L579.375 288.125L586.875 265.625L588.125 263.75L598.75 263.125L611.875 263.75L614.375 269.375L631.875 323.125L640.625 349.375L649.375 376.875L657.5 400.625L665 423.125L666.875 428.125L668.125 426.875L675 405L686.25 367.5L695 338.125L702.5 313.125L711.25 283.75L715.625 269.375L718.125 264.375L718.75 263.75H740L741.25 264.375L740.625 268.75L734.375 290L725 320.625L720 338.125L711.25 366.875L702.5 396.25L691.875 430.625L685 454.375L682.5 459.375H652.5L650 454.375L631.25 397.5L619.375 361.25L610.625 334.375L601.25 306.875L598.75 304.375L598.125 309.375L590 331.875L582.5 354.375L571.875 386.875L563.125 413.75L549.375 455.625L546.875 459.375H517.5L515.625 456.875L508.125 431.875L494.375 385.625L481.875 344.375L471.875 311.875L468.75 301.875L458.75 266.875V264.375L467.5 263.125Z" fill="#000"/>
<path d="M294.375 288.75L295.625 289.375L278.75 306.25V304.375L287.5 295L294.375 288.75Z" fill="#000"/>
<path d="M46.875 281.875L48.125 282.5L31.25 299.375V297.5L41.25 286.875L46.875 281.875Z" fill="#000"/>
</svg>
